<?xml version="1.0" standalone="no"?>
<!DOCTYPE svg PUBLIC "-//W3C//DTD SVG 20010904//EN"
 "http://www.w3.org/TR/2001/REC-SVG-20010904/DTD/svg10.dtd">
<svg version="1.0" xmlns="http://www.w3.org/2000/svg"
 width="1000.000000pt" height="1000.000000pt" viewBox="0 0 1000.000000 1000.000000"
 preserveAspectRatio="xMidYMid meet">

<g transform="translate(0.000000,1000.000000) scale(0.100000,-0.100000)"
fill="#000000" stroke="none">
<path d="M4640 6875 c-93 -21 -145 -42 -230 -92 -71 -42 -188 -138 -179 -147
2 -2 36 3 74 11 112 24 344 13 460 -22 338 -100 595 -350 696 -675 12 -41 26
-79 30 -84 4 -5 14 15 23 43 121 408 -110 835 -514 951 -98 28 -270 35 -360
15z"/>
<path d="M5428 6803 c177 -205 268 -491 241 -760 -13 -129 -42 -233 -94 -341
-56 -117 -99 -182 -176 -266 -69 -75 -71 -73 50 -39 213 58 412 246 491 461
132 364 -19 754 -360 931 -65 34 -166 71 -193 71 -4 0 14 -26 41 -57z"/>
<path d="M4455 6510 c-183 -27 -375 -134 -480 -268 -148 -187 -203 -429 -151
-657 l18 -79 34 93 c114 319 366 547 714 644 107 30 369 30 483 0 42 -11 77
-17 77 -13 0 15 -129 130 -189 169 -146 94 -337 136 -506 111z"/>
<path d="M4551 6094 c-247 -73 -447 -280 -517 -535 -25 -89 -25 -290 -1 -379
55 -200 200 -381 377 -474 52 -27 185 -76 207 -76 2 0 -18 26 -46 58 -104 120
-190 295 -228 467 -19 85 -21 285 -4 375 38 202 127 380 261 523 34 37 56 67
49 66 -8 0 -52 -11 -98 -25z"/>
<path d="M6136 5924 c-82 -263 -309 -511 -566 -620 -150 -63 -236 -79 -420
-78 -135 1 -177 5 -232 21 -38 11 -68 17 -68 13 0 -17 151 -147 211 -183 121
-71 303 -114 434 -101 379 36 662 317 700 694 7 67 -6 196 -28 271 l-12 42
-19 -59z"/>
<path d="M4485 5579 c-93 -313 19 -648 282 -835 250 -179 568 -191 835 -31 79
48 189 154 148 143 -142 -36 -360 -32 -504 8 -159 45 -321 135 -439 245 -112
104 -221 280 -268 431 -12 41 -26 79 -30 84 -4 5 -15 -16 -24 -45z"/>
<path d="M2760 4385 c-119 -34 -204 -106 -257 -221 -26 -54 -28 -69 -28 -174
0 -109 2 -119 32 -182 96 -204 349 -285 555 -179 l57 29 23 -25 c30 -33 53
-44 72 -37 25 10 19 48 -13 78 l-29 28 38 59 c44 69 64 138 64 229 0 178 -95
321 -252 381 -75 28 -190 34 -262 14z m254 -88 c134 -62 210 -212 186 -364
-11 -64 -46 -140 -72 -157 -15 -9 -28 -1 -81 52 -34 34 -65 62 -69 62 -10 0
-38 -30 -38 -42 0 -5 28 -39 62 -74 34 -35 59 -66 57 -68 -16 -14 -73 -36
-123 -46 -152 -31 -307 49 -370 190 -25 56 -28 70 -24 153 3 70 9 103 27 139
42 87 125 154 218 178 61 15 167 4 227 -23z"/>
<path d="M5052 4378 c-9 -9 -12 -109 -12 -389 0 -331 2 -378 16 -390 11 -9 20
-10 32 -2 13 8 18 29 20 99 3 87 4 90 39 127 21 20 40 37 43 37 4 0 56 -61
116 -135 63 -78 116 -135 126 -135 10 0 22 9 28 20 9 16 -3 35 -76 127 -48 59
-98 119 -111 134 -12 14 -23 30 -23 36 0 5 47 52 105 104 76 68 105 100 103
114 -7 47 -42 27 -188 -105 -80 -71 -148 -130 -152 -130 -5 0 -8 107 -8 238 0
237 -3 262 -35 262 -6 0 -16 -5 -23 -12z"/>
<path d="M5653 4383 c-18 -7 -19 -763 -1 -781 9 -9 77 -12 244 -12 248 0 264
3 249 50 -6 19 -13 20 -221 20 l-214 0 0 353 c0 386 -1 393 -57 370z"/>
<path d="M4156 4357 c-12 -9 -17 -23 -14 -47 4 -45 46 -64 78 -35 25 23 26 49
0 75 -23 23 -39 25 -64 7z"/>
<path d="M6302 4354 c-39 -27 -19 -94 27 -94 24 0 51 31 51 58 0 18 -33 52
-50 52 -3 0 -16 -7 -28 -16z"/>
<path d="M7172 4318 c-8 -8 -12 -45 -12 -100 l0 -88 -45 0 c-34 0 -47 -5 -55
-19 -15 -28 12 -51 61 -51 l39 0 0 -162 c0 -187 12 -229 81 -275 48 -32 135
-38 153 -10 18 29 -4 51 -59 58 -37 4 -54 12 -76 37 l-29 32 0 160 0 160 58 0
c69 0 103 19 86 47 -9 14 -26 19 -78 21 l-66 3 0 84 c0 63 -4 87 -16 99 -19
19 -26 20 -42 4z"/>
<path d="M3440 4136 c-8 -11 -11 -66 -8 -198 3 -166 5 -187 25 -225 27 -51 82
-96 132 -112 87 -25 211 -5 250 42 19 24 29 21 33 -9 4 -35 31 -53 52 -35 14
12 16 48 16 271 0 223 -2 259 -16 271 -11 9 -20 10 -32 2 -15 -9 -18 -37 -22
-201 l-5 -191 -30 -32 c-40 -42 -83 -59 -152 -59 -78 0 -130 30 -160 90 -21
41 -23 58 -23 210 0 165 -5 190 -36 190 -6 0 -17 -7 -24 -14z"/>
<path d="M4162 4138 c-9 -9 -12 -82 -12 -269 0 -222 2 -258 16 -270 11 -9 20
-10 32 -2 15 9 17 40 20 268 2 257 -1 285 -32 285 -7 0 -17 -5 -24 -12z"/>
<path d="M4571 4138 c-18 -5 -57 -33 -87 -62 -41 -42 -56 -66 -70 -111 -35
-122 3 -252 95 -322 54 -42 110 -56 194 -50 109 7 200 76 146 110 -12 8 -24 5
-47 -12 -71 -50 -194 -45 -259 12 -126 110 -82 337 71 376 74 18 132 3 194
-51 27 -23 37 -26 52 -18 11 6 20 17 20 24 0 23 -86 94 -126 105 -47 13 -137
13 -183 -1z"/>
<path d="M6300 4131 c-6 -12 -10 -115 -10 -263 0 -263 4 -288 48 -274 22 7 22
9 22 276 0 235 -2 269 -16 274 -25 10 -33 7 -44 -13z"/>
<path d="M6650 4128 c-59 -31 -85 -68 -85 -123 0 -83 51 -123 201 -161 107
-26 144 -50 144 -95 0 -96 -177 -126 -288 -49 -35 24 -47 28 -62 20 -67 -36
48 -119 175 -128 91 -6 148 10 197 57 32 30 41 45 45 81 8 88 -50 147 -167
170 -103 21 -132 31 -156 55 -96 96 116 186 220 94 19 -16 45 -29 60 -29 66 0
0 97 -81 119 -66 19 -154 14 -203 -11z"/>
</g>
</svg>
